<?xml version="1.0" encoding="utf-8"?>
<!-- Generator: Adobe Illustrator 23.0.6, SVG Export Plug-In . SVG Version: 6.00 Build 0)  -->
<svg version="1.1" id="レイヤー_1" xmlns="http://www.w3.org/2000/svg" xmlns:xlink="http://www.w3.org/1999/xlink" x="0px"
	 y="0px" viewBox="0 0 144.3 197.37" style="enable-background:new 0 0 144.3 197.37;" xml:space="preserve">
<style type="text/css">
	.st0{opacity:0;fill:#FFFFFF;}
	.st1{fill:none;stroke:#FFFFFF;stroke-width:10;stroke-miterlimit:10;}
	.st2{fill:#FFFFFF;}
</style>
<g>
	<path class="st0" d="M123.63,125c0,31.18-23.17,56.69-51.48,56.69S20.67,156.18,20.67,125V72.37c0-31.18,23.17-56.69,51.48-56.69
		s51.48,25.51,51.48,56.69V125z"/>
	<path class="st1" d="M123.63,125c0,31.18-23.17,56.69-51.48,56.69S20.67,156.18,20.67,125V72.37c0-31.18,23.17-56.69,51.48-56.69
		s51.48,25.51,51.48,56.69V125z"/>
</g>
<g>
	<path class="st2" d="M77.62,70.21c0,3.12-2.46,5.67-5.47,5.67s-5.47-2.55-5.47-5.67V43.28c0-3.12,2.46-5.67,5.47-5.67
		s5.47,2.55,5.47,5.67V70.21z"/>
</g>
</svg>
